<?xml version="1.0" encoding="iso-8859-1"?>
<!-- Generator: Adobe Illustrator 19.0.0, SVG Export Plug-In . SVG Version: 6.00 Build 0)  -->
<svg version="1.1" id="Layer_1" xmlns="http://www.w3.org/2000/svg" xmlns:xlink="http://www.w3.org/1999/xlink" x="0px" y="0px"
	 viewBox="0 0 512 512" style="enable-background:new 0 0 512 512;" xml:space="preserve">
<g>
	<path style="fill:#3C1146;" d="M335.805,512H176.202c-12.555,0-24.126-5.712-31.74-15.672c-7.684-10.044-10.19-22.841-6.869-35.106
		c8.791-32.422,11.245-74.214,9.805-99.328c-1.811-31.476-9.889-64.663-24.694-101.455c-17.487-43.458-28.185-90.97-31.799-141.214
		c-0.553-7.698,5.237-14.387,12.935-14.941c7.708-0.556,14.386,5.239,14.939,12.935c3.405,47.349,13.448,92.024,29.851,132.785
		c15.957,39.653,24.68,75.728,26.669,110.288c1.617,28.212-1.075,72.62-10.732,108.238c-1.041,3.848-0.299,7.694,2.093,10.82
		c2.32,3.034,5.707,4.702,9.541,4.702h159.604c3.83,0,7.215-1.668,9.531-4.699c2.399-3.132,3.14-6.971,2.096-10.821
		c-9.66-35.65-12.347-80.05-10.726-108.239c1.981-34.549,10.704-70.625,26.663-110.288c6.202-15.403,11.567-31.644,15.952-48.267
		c1.967-7.463,9.618-11.918,17.074-9.948c7.463,1.968,11.917,9.613,9.948,17.074c-4.68,17.745-10.415,35.096-17.048,51.576
		c-14.808,36.798-22.883,69.985-24.689,101.455c-1.442,25.097,1.009,66.88,9.8,99.324c3.327,12.266,0.822,25.067-6.875,35.119
		C359.923,506.288,348.357,512,335.805,512z"/>
	<path style="fill:#3C1146;" d="M283.947,445.774H159.503c-7.718,0-13.974-6.257-13.974-13.974c0-7.716,6.256-13.974,13.974-13.974
		h124.444c7.716,0,13.974,6.257,13.974,13.974C297.921,439.517,291.665,445.774,283.947,445.774z"/>
</g>
<path style="fill:#D4A8B4;" d="M124.38,77.15h8.112c1.314,0,2.412-1.03,2.461-2.342c1.232-33.807,29.028-60.835,63.135-60.835
	c24.142,0,45.113,13.548,55.747,33.452c0.928,1.736,3.405,1.736,4.333,0c10.633-19.904,31.603-33.452,55.745-33.452
	c34.108,0,61.904,27.029,63.135,60.836c0.048,1.312,1.147,2.342,2.461,2.342h8.112c20.269,0,36.853,16.584,36.853,36.853
	s-16.584,36.854-36.853,36.854h-92.647v42.08c0,16.546-13.538,30.084-30.084,30.084c-16.546,0-30.084-13.538-30.084-30.084V175.68
	c-3.199,16.52-17.733,28.997-35.187,28.997l0,0c-19.798,0-35.848-16.05-35.848-35.85v-17.97H124.38
	c-20.269,0-36.853-16.584-36.853-36.854S104.111,77.15,124.38,77.15z"/>
<path style="fill:#3C1146;" d="M264.889,236.999c-17.598,0-32.82-10.371-39.874-25.323c-7.49,4.448-16.203,6.976-25.397,6.976
	c-27.472,0-49.822-22.35-49.822-49.822v-3.996H124.38c-28.027,0-50.828-22.8-50.828-50.827c0-27.288,21.615-49.623,48.624-50.781
	C128.702,26.993,160.147,0,198.087,0C220.572,0,241.536,9.719,256,26.171C270.463,9.72,291.429,0,313.914,0
	c37.937,0,69.384,26.994,75.909,63.224c27.008,1.157,48.624,23.493,48.624,50.781c0,28.027-22.801,50.827-50.828,50.827h-78.673
	v28.108C308.946,217.234,289.182,236.999,264.889,236.999z M234.791,161.705c0.446,0,0.894,0.022,1.347,0.066
	c7.167,0.688,12.639,6.709,12.639,13.909v17.26c0,8.883,7.227,16.11,16.11,16.11s16.11-7.227,16.11-16.11v-42.082
	c0-7.716,6.257-13.974,13.974-13.974h92.647c12.615,0,22.881-10.264,22.881-22.879s-10.264-22.879-22.879-22.879h-8.113
	c-8.887,0-16.102-6.945-16.425-15.808c-0.967-26.563-22.565-47.371-49.168-47.371c-18.195,0-34.834,9.986-43.421,26.061
	c-2.867,5.363-8.418,8.692-14.492,8.692c-6.074,0-11.628-3.33-14.492-8.692c-8.59-16.075-25.227-26.061-43.422-26.061
	c-26.605,0-48.202,20.808-49.171,47.37c-0.321,8.864-7.537,15.808-16.425,15.808h-8.112c-12.615,0-22.881,10.264-22.881,22.879
	s10.264,22.879,22.881,22.879h39.388c7.718,0,13.974,6.257,13.974,13.974v17.97c0,12.062,9.812,21.874,21.874,21.874
	c10.455,0,19.484-7.435,21.468-17.68C222.367,166.4,228.169,161.705,234.791,161.705z"/>
<g>
</g>
<g>
</g>
<g>
</g>
<g>
</g>
<g>
</g>
<g>
</g>
<g>
</g>
<g>
</g>
<g>
</g>
<g>
</g>
<g>
</g>
<g>
</g>
<g>
</g>
<g>
</g>
<g>
</g>
</svg>
